<svg width="25" height="24" viewBox="0 0 25 24" fill="none" xmlns="http://www.w3.org/2000/svg">
<path d="M17.8571 0C17.2257 0 16.6201 0.252856 16.1736 0.702944C15.727 1.15303 15.4762 1.76348 15.4762 2.4C15.4769 2.82057 15.5873 3.23356 15.7962 3.5976C16.0052 3.96163 16.3053 4.26394 16.6667 4.47422V6H13.0952V3.6L13.0976 1.86563C13.0976 1.65537 13.0429 1.4488 12.9388 1.26658C12.8348 1.08436 12.685 0.932891 12.5047 0.827344C11.6514 0.327927 10.7006 0.0595529 9.74237 0.0210938C9.42295 0.00827403 9.1019 0.0200443 8.78441 0.0585938C7.51446 0.212791 6.28742 0.777904 5.31529 1.75781C5.0132 2.06232 4.77012 2.39529 4.56194 2.74219L4.55962 2.74688C4.48521 2.82236 4.4211 2.90748 4.36895 3C3.64482 4.26372 3.44683 5.68471 3.67839 7.02422C1.51177 8.2562 0 10.5208 0 13.2C0 15.3838 1.05534 17.2656 2.57859 18.5813C3.1439 21.6386 5.7351 24 8.92857 24C10.2709 24 11.5284 23.586 12.5674 22.8844C12.7297 22.7747 12.8628 22.6265 12.9548 22.4528C13.0469 22.2791 13.0951 22.0852 13.0952 21.8883V20.4V18H16.6667V19.5234C16.305 19.7339 16.0046 20.0366 15.7956 20.4011C15.5867 20.7656 15.4765 21.179 15.4762 21.6C15.4762 22.2365 15.727 22.847 16.1736 23.2971C16.6201 23.7471 17.2257 24 17.8571 24C18.4886 24 19.0942 23.7471 19.5407 23.2971C19.9872 22.847 20.2381 22.2365 20.2381 21.6C20.2374 21.1794 20.127 20.7664 19.9181 20.4024C19.7091 20.0384 19.409 19.7361 19.0476 19.5258V16.8C19.0476 16.4818 18.9222 16.1765 18.6989 15.9515C18.4757 15.7265 18.1729 15.6 17.8571 15.6H13.0952V13.2H20.5613C20.7699 13.5642 21.0698 13.8668 21.431 14.0774C21.7921 14.288 22.2018 14.3993 22.619 14.4C23.2505 14.4 23.8561 14.1471 24.3026 13.6971C24.7491 13.247 25 12.6365 25 12C25 11.3635 24.7491 10.753 24.3026 10.3029C23.8561 9.85286 23.2505 9.6 22.619 9.6C22.2014 9.60033 21.7912 9.71139 21.4296 9.92201C21.068 10.1326 20.7678 10.4354 20.559 10.8H13.0952V8.4H17.8571C18.1729 8.39997 18.4757 8.27353 18.6989 8.04849C18.9222 7.82346 19.0476 7.51825 19.0476 7.2V4.47656C19.4093 4.26608 19.7097 3.96341 19.9186 3.59892C20.1276 3.23444 20.2378 2.82097 20.2381 2.4C20.2381 1.76348 19.9872 1.15303 19.5407 0.702944C19.0942 0.252856 18.4886 0 17.8571 0ZM9.49591 2.43047C9.90866 2.47139 10.3132 2.62792 10.7143 2.77734V3.6V6.99844C10.693 7.12803 10.693 7.26025 10.7143 7.38984V9.47344C10.7097 9.51625 10.7073 9.55928 10.7073 9.60234C10.7089 10.656 10.0438 11.5361 9.12388 11.8641C8.82611 11.9701 8.58231 12.191 8.4461 12.4782C8.30989 12.7654 8.29243 13.0954 8.39755 13.3956C8.50268 13.6958 8.72178 13.9416 9.00668 14.079C9.29157 14.2163 9.61893 14.234 9.91676 14.1281C10.197 14.0282 10.4611 13.8948 10.7143 13.7461V16.5984C10.693 16.728 10.693 16.8603 10.7143 16.9898V20.4V21.0539C10.1599 21.3308 9.59242 21.6 8.92857 21.6C6.78142 21.6 5.0591 19.9827 4.81538 17.8852C4.79646 17.7217 4.74438 17.5639 4.66238 17.4215C4.58038 17.2792 4.47021 17.1554 4.33873 17.0578C3.15254 16.1789 2.38095 14.7925 2.38095 13.2C2.38095 11.5296 3.23222 10.0903 4.51079 9.23438C4.67338 9.49109 4.85467 9.73648 5.0572 9.96797C5.15926 10.0906 5.28463 10.1914 5.42593 10.2645C5.56723 10.3376 5.72161 10.3814 5.87997 10.3934C6.03834 10.4055 6.19749 10.3854 6.34805 10.3345C6.49862 10.2836 6.63756 10.2028 6.75669 10.097C6.87582 9.99113 6.97274 9.86232 7.04174 9.71814C7.11074 9.57395 7.15043 9.41731 7.15846 9.25743C7.16649 9.09756 7.14272 8.93767 7.08852 8.7872C7.03433 8.63673 6.95082 8.4987 6.84291 8.38125C6.56478 8.06334 6.35633 7.69895 6.20582 7.3125C6.1968 7.27449 6.18593 7.23694 6.17327 7.2C5.89428 6.40491 5.89153 5.53745 6.1756 4.75078C6.19501 4.69702 6.22326 4.64671 6.24535 4.59375C6.2959 4.47478 6.34836 4.35542 6.41276 4.23984C6.56804 3.96012 6.76119 3.69409 6.9987 3.45469C7.58728 2.8614 8.32049 2.52281 9.07971 2.43281C9.219 2.4163 9.35832 2.41683 9.49591 2.43047Z" fill="#3B82F6"/>
</svg>
