<svg width="20" height="14" viewBox="0 0 20 14" fill="none" xmlns="http://www.w3.org/2000/svg">
<path d="M1.0128 0.000100006C0.880477 -0.00177401 0.749101 0.0227069 0.626308 0.07212C0.503514 0.121533 0.391752 0.194893 0.297517 0.287936C0.203281 0.380979 0.128452 0.49185 0.0773767 0.614105C0.0263017 0.736361 0 0.867562 0 1.00009C0 1.13261 0.0263017 1.26381 0.0773767 1.38607C0.128452 1.50832 0.203281 1.61919 0.297517 1.71224C0.391752 1.80528 0.503514 1.87864 0.626308 1.92805C0.749101 1.97746 0.880477 2.00195 1.0128 2.00007H18.9872C19.1195 2.00195 19.2509 1.97746 19.3737 1.92805C19.4965 1.87864 19.6082 1.80528 19.7025 1.71224C19.7967 1.61919 19.8715 1.50832 19.9226 1.38607C19.9737 1.26381 20 1.13261 20 1.00009C20 0.867562 19.9737 0.736361 19.9226 0.614105C19.8715 0.49185 19.7967 0.380979 19.7025 0.287936C19.6082 0.194893 19.4965 0.121533 19.3737 0.07212C19.2509 0.0227069 19.1195 -0.00177401 18.9872 0.000100006H1.0128ZM1.0128 6.00001C0.880477 5.99814 0.749101 6.02262 0.626308 6.07203C0.503514 6.12145 0.391752 6.19481 0.297517 6.28785C0.203281 6.38089 0.128452 6.49176 0.0773767 6.61402C0.0263017 6.73627 0 6.86748 0 7C0 7.13252 0.0263017 7.26373 0.0773767 7.38598C0.128452 7.50824 0.203281 7.61911 0.297517 7.71215C0.391752 7.80519 0.503514 7.87855 0.626308 7.92797C0.749101 7.97738 0.880477 8.00186 1.0128 7.99999H18.9872C19.1195 8.00186 19.2509 7.97738 19.3737 7.92797C19.4965 7.87855 19.6082 7.80519 19.7025 7.71215C19.7967 7.61911 19.8715 7.50824 19.9226 7.38598C19.9737 7.26373 20 7.13252 20 7C20 6.86748 19.9737 6.73627 19.9226 6.61402C19.8715 6.49176 19.7967 6.38089 19.7025 6.28785C19.6082 6.19481 19.4965 6.12145 19.3737 6.07203C19.2509 6.02262 19.1195 5.99814 18.9872 6.00001H1.0128ZM1.0128 11.9999C0.880477 11.9981 0.749101 12.0225 0.626308 12.0719C0.503514 12.1214 0.391752 12.1947 0.297517 12.2878C0.203281 12.3808 0.128452 12.4917 0.0773767 12.6139C0.0263017 12.7362 0 12.8674 0 12.9999C0 13.1324 0.0263017 13.2636 0.0773767 13.3859C0.128452 13.5082 0.203281 13.619 0.297517 13.7121C0.391752 13.8051 0.503514 13.8785 0.626308 13.9279C0.749101 13.9773 0.880477 14.0018 1.0128 13.9999H18.9872C19.1195 14.0018 19.2509 13.9773 19.3737 13.9279C19.4965 13.8785 19.6082 13.8051 19.7025 13.7121C19.7967 13.619 19.8715 13.5082 19.9226 13.3859C19.9737 13.2636 20 13.1324 20 12.9999C20 12.8674 19.9737 12.7362 19.9226 12.6139C19.8715 12.4917 19.7967 12.3808 19.7025 12.2878C19.6082 12.1947 19.4965 12.1214 19.3737 12.0719C19.2509 12.0225 19.1195 11.9981 18.9872 11.9999H1.0128Z" fill="white"/>
</svg>
