<svg width="14" height="24" viewBox="0 0 14 24" fill="none" xmlns="http://www.w3.org/2000/svg">
<path d="M7 0C6.89006 1.35962e-05 6.78276 0.0341166 6.69252 0.097726C6.60227 0.161335 6.53341 0.251403 6.49519 0.355824L0.166166 12.5114C0.0580804 12.6849 0.000487768 12.8857 0 13.0909C0 13.3802 0.113461 13.6577 0.315424 13.8623C0.517386 14.0669 0.791305 14.1818 1.07692 14.1818H6.46154V23.4545C6.46154 23.5992 6.51827 23.7379 6.61925 23.8402C6.72023 23.9425 6.85719 24 7 24C7.0991 24.0001 7.19631 23.9725 7.28092 23.9203C7.36554 23.868 7.43428 23.7931 7.47957 23.7038L13.8549 11.4567L13.8528 11.4545C13.9483 11.289 13.9991 11.1009 14 10.9091C14 10.6198 13.8865 10.3423 13.6846 10.1377C13.4826 9.93312 13.2087 9.81818 12.9231 9.81818H7.53846V0.545455C7.53846 0.400791 7.48173 0.262052 7.38075 0.15976C7.27977 0.0574673 7.14281 0 7 0Z" fill="#7C3AED"/>
</svg>
