<svg width="25" height="24" viewBox="0 0 25 24" fill="none" xmlns="http://www.w3.org/2000/svg">
<path d="M10.8919 0C8.67569 0 6.8791 1.79086 6.8791 4C6.8791 4.75841 7.10251 5.46046 7.47027 6.06473C4.05526 6.93642 2.2547 9.32589 1.53615 11.4978C1.41128 11.4524 1.27944 11.4289 1.14652 11.4286C0.842442 11.4286 0.550821 11.549 0.335807 11.7633C0.120793 11.9776 0 12.2683 0 12.5714C0 12.8745 0.120793 13.1652 0.335807 13.3796C0.550821 13.5939 0.842442 13.7143 1.14652 13.7143C1.14652 15.0446 1.59506 16.4004 2.37813 17.6496L3.28056 23.0446C3.37228 23.5955 3.85076 24 4.4114 24H7.05377C7.61441 24 8.09289 23.5966 8.18461 23.0446L8.3212 22.2277C9.48263 22.622 10.7314 22.8571 12.0384 22.8571C12.8353 22.8571 13.6086 22.7919 14.3561 22.6719L14.8219 23.4442C15.0294 23.7893 15.4013 24 15.8049 24H18.3443C19.0677 24 19.6094 23.3414 19.4684 22.6339L19.1258 20.9241C20.2746 20.1995 21.2108 19.3017 21.8689 18.2857H23.1834C23.7096 18.2857 24.1668 17.9294 24.2941 17.4196L24.9659 14.7411C25.1103 14.1616 24.7844 13.568 24.2157 13.3795L22.5788 12.8348C22.2864 11.9457 21.7946 11.0174 21.0941 10.1317C21.4805 8.88255 21.7838 7.37486 21.7838 5.71429L15.3929 6.42188C15.0354 6.31389 14.6627 6.21537 14.2777 6.12946C14.6695 5.51176 14.9047 4.78485 14.9047 4C14.9047 1.79086 13.1081 0 10.8919 0ZM10.8919 2.28571C11.8401 2.28571 12.6117 3.05486 12.6117 4C12.6117 4.94514 11.8401 5.71429 10.8919 5.71429C9.94374 5.71429 9.17214 4.94514 9.17214 4C9.17214 3.05486 9.94374 2.28571 10.8919 2.28571ZM10.3187 8C11.9054 8 13.3887 8.2048 14.7278 8.60938L15.1779 8.74554L15.6459 8.6942L19.2086 8.29911C19.1249 8.68425 19.0233 9.07239 18.9041 9.45982L18.5503 10.6049L19.2937 11.5469C19.7959 12.1823 20.1809 12.8737 20.4022 13.5469L20.7605 14.6406L21.8555 15.0045L22.4847 15.2121L22.2854 16H21.8667H20.6194L19.9409 17.0446C19.4685 17.7738 18.7631 18.4482 17.8987 18.9933L16.5663 19.8326L16.8753 21.3728L16.9447 21.7143H16.4543L16.3222 21.4955L15.525 20.1696L13.9933 20.4129C13.3398 20.5181 12.6828 20.5714 12.0384 20.5714C11.0513 20.5714 10.0507 20.4007 9.06241 20.0647L6.50514 19.1964L6.08415 21.7143H5.38102L4.63981 17.2746L4.56367 16.8259L4.32183 16.4397C3.74399 15.5174 3.43955 14.5749 3.43955 13.7143C3.43955 13.6571 3.62643 8 10.3187 8ZM17.1978 12.5714C16.5649 12.5714 16.0512 13.0834 16.0512 13.7143C16.0512 14.3451 16.5649 14.8571 17.1978 14.8571C17.8306 14.8571 18.3443 14.3451 18.3443 13.7143C18.3443 13.0834 17.8306 12.5714 17.1978 12.5714Z" fill="#3C83F6"/>
</svg>
