<svg width="16" height="12" viewBox="0 0 16 12" fill="none" xmlns="http://www.w3.org/2000/svg">
<path d="M9.96798 0C9.73611 0 9.50399 0.0896046 9.32729 0.2658L9.24941 0.343252C8.89509 0.695644 8.89509 1.2662 9.24941 1.61769L12.7502 5.0995H0.90618C0.405969 5.0995 0 5.50326 0 6.00075C0 6.49825 0.405969 6.90201 0.90618 6.90201H12.7502L9.24941 10.3838C8.89509 10.7362 8.89509 11.3068 9.24941 11.6583L9.32729 11.7357C9.6816 12.0881 10.2553 12.0881 10.6087 11.7357L15.7343 6.63797C16.0886 6.28558 16.0886 5.71503 15.7343 5.36354L10.6087 0.2658C10.4315 0.0896046 10.1999 0 9.96798 0Z" fill="white"/>
</svg>
